<svg id="Layer_1" data-name="Layer 1" xmlns="http://www.w3.org/2000/svg" viewBox="0 0 836.03 723.49"><defs><style>.cls-1{fill:none;}.cls-1,.cls-3,.cls-4,.cls-5,.cls-6,.cls-7{stroke:#000;stroke-miterlimit:10;}.cls-2{font-size:37.66px;}.cls-10,.cls-2{font-family:DIN-Regular, DIN;}.cls-3{fill:#333;}.cls-3,.cls-4,.cls-5,.cls-6,.cls-7{stroke-width:0.5px;}.cls-4{fill:#666;}.cls-5{fill:#999;}.cls-6{fill:#b3b3b3;}.cls-7{fill:#e6e6e6;}.cls-8{font-size:25px;}.cls-13,.cls-8{font-family:DIN-BlackAlternate, DIN;font-weight:800;}.cls-9{letter-spacing:-0.01em;}.cls-10{font-size:23px;}.cls-11{letter-spacing:-0.01em;}.cls-12{letter-spacing:-0.02em;}.cls-13{font-size:32px;}.cls-14{letter-spacing:-0.04em;}.cls-15{letter-spacing:-0.05em;}.cls-16{letter-spacing:-0.02em;}.cls-17{letter-spacing:-0.02em;}.cls-18{letter-spacing:0em;}.cls-19{letter-spacing:-0.02em;}.cls-20{letter-spacing:-0.01em;}.cls-21{letter-spacing:-0.04em;}</style></defs><title>PerceptiveTest</title><line class="cls-1" x1="32.21" y1="629.34" x2="835.53" y2="629.34"/><line class="cls-1" x1="32.21" y1="629.34" x2="32.21" y2="616.64"/><line class="cls-1" x1="433.87" y1="629.34" x2="433.87" y2="616.64"/><line class="cls-1" x1="835.53" y1="629.34" x2="835.53" y2="616.64"/><text class="cls-2" transform="translate(0 643.47)">0</text><text class="cls-2" transform="translate(0 579.94)">1</text><text class="cls-2" transform="translate(0 516.41)">2</text><text class="cls-2" transform="translate(0 452.88)">3</text><text class="cls-2" transform="translate(0 389.36)">4</text><text class="cls-2" transform="translate(0 325.83)">5</text><text class="cls-2" transform="translate(0 262.3)">6</text><text class="cls-2" transform="translate(0 198.77)">7</text><text class="cls-2" transform="translate(0 135.25)">8</text><line class="cls-1" x1="32.21" y1="629.34" x2="32.21" y2="121.13"/><line class="cls-1" x1="32.21" y1="629.34" x2="52.29" y2="629.34"/><line class="cls-1" x1="32.21" y1="565.82" x2="52.29" y2="565.82"/><line class="cls-1" x1="32.21" y1="502.29" x2="52.29" y2="502.29"/><line class="cls-1" x1="32.21" y1="438.76" x2="52.29" y2="438.76"/><line class="cls-1" x1="32.21" y1="375.24" x2="52.29" y2="375.24"/><line class="cls-1" x1="32.21" y1="311.71" x2="52.29" y2="311.71"/><line class="cls-1" x1="32.21" y1="248.18" x2="52.29" y2="248.18"/><line class="cls-1" x1="32.21" y1="184.65" x2="52.29" y2="184.65"/><line class="cls-1" x1="32.21" y1="121.13" x2="52.29" y2="121.13"/><rect class="cls-3" x="317.39" y="217.74" width="72.3" height="411.6"/><rect class="cls-3" x="719.05" y="188.62" width="72.3" height="440.72"/><rect class="cls-4" x="237.05" y="247.52" width="72.3" height="381.83"/><rect class="cls-4" x="638.71" y="253.47" width="72.3" height="375.87"/><rect class="cls-5" x="156.72" y="166.12" width="72.3" height="463.22"/><rect class="cls-6" x="558.38" y="180.02" width="72.3" height="449.32"/><rect class="cls-7" x="76.39" y="176.71" width="72.3" height="452.63"/><rect class="cls-7" x="478.05" y="215.09" width="72.3" height="414.25"/><line class="cls-1" x1="114.93" y1="164.36" x2="114.93" y2="189.07"/><line class="cls-1" x1="109.93" y1="164.18" x2="119.93" y2="164.18"/><line class="cls-1" x1="109.93" y1="189.25" x2="119.93" y2="189.25"/><line class="cls-1" x1="192.93" y1="151.74" x2="192.93" y2="180.49"/><line class="cls-1" x1="187.93" y1="151.53" x2="197.93" y2="151.53"/><line class="cls-1" x1="187.93" y1="180.7" x2="197.93" y2="180.7"/><line class="cls-1" x1="274.93" y1="230.68" x2="274.93" y2="264.36"/><line class="cls-1" x1="269.93" y1="230.43" x2="279.93" y2="230.43"/><line class="cls-1" x1="269.93" y1="264.6" x2="279.93" y2="264.6"/><line class="cls-1" x1="354.93" y1="198.42" x2="354.93" y2="237.01"/><line class="cls-1" x1="349.93" y1="198.14" x2="359.93" y2="198.14"/><line class="cls-1" x1="349.93" y1="237.29" x2="359.93" y2="237.29"/><line class="cls-1" x1="515.93" y1="200.59" x2="515.93" y2="229.25"/><line class="cls-1" x1="510.93" y1="200.38" x2="520.93" y2="200.38"/><line class="cls-1" x1="510.93" y1="229.45" x2="520.93" y2="229.45"/><line class="cls-1" x1="595.93" y1="161.49" x2="595.93" y2="198.35"/><line class="cls-1" x1="590.93" y1="161.22" x2="600.93" y2="161.22"/><line class="cls-1" x1="590.93" y1="198.61" x2="600.93" y2="198.61"/><line class="cls-1" x1="675.93" y1="233.43" x2="675.93" y2="273.4"/><line class="cls-1" x1="670.93" y1="233.14" x2="680.93" y2="233.14"/><line class="cls-1" x1="670.93" y1="273.69" x2="680.93" y2="273.69"/><line class="cls-1" x1="756.93" y1="170.62" x2="756.93" y2="206.21"/><line class="cls-1" x1="751.93" y1="170.37" x2="761.93" y2="170.37"/><line class="cls-1" x1="751.93" y1="206.47" x2="761.93" y2="206.47"/><text class="cls-8" transform="translate(138.8 718.49)">ANECHOIC <tspan class="cls-9" x="122.9" y="0">C</tspan><tspan x="136.32" y="0">ASE</tspan></text><text class="cls-8" transform="translate(567.8 718.49)">ROOM <tspan class="cls-9" x="74.05" y="0">C</tspan><tspan x="87.47" y="0">ASE</tspan></text><text class="cls-10" transform="translate(85.4 655.66)"><tspan class="cls-11">J</tspan><tspan x="11.29" y="0">ADE</tspan></text><text class="cls-10" transform="translate(180.4 655.66)"><tspan class="cls-12">G</tspan><tspan x="14.49" y="0">T</tspan></text><text class="cls-10" transform="translate(248.4 655.66)">NMF</text><text class="cls-10" transform="translate(326.4 655.66)">SOBI</text><text class="cls-10" transform="translate(486.4 655.66)"><tspan class="cls-11">J</tspan><tspan x="11.29" y="0">ADE</tspan></text><text class="cls-10" transform="translate(581.4 655.66)"><tspan class="cls-12">G</tspan><tspan x="14.49" y="0">T</tspan></text><text class="cls-10" transform="translate(649.4 655.66)">NMF</text><text class="cls-10" transform="translate(727.4 655.66)">SOBI</text><text class="cls-13" transform="translate(132.01 27.2)"><tspan class="cls-14">C</tspan><tspan x="16.22" y="0">OM</tspan><tspan class="cls-15" x="62.56" y="0">P</tspan><tspan x="81.02" y="0">ARISON OF SEVERAL A</tspan><tspan class="cls-16" x="413.92" y="0">L</tspan><tspan x="431.71" y="0">G</tspan><tspan class="cls-17" x="451.96" y="0">O</tspan><tspan class="cls-18" x="471.8" y="0">TIRHMS </tspan><tspan x="-20.56" y="38.4">WITH RESPE</tspan><tspan class="cls-19" x="165.04" y="38.4">C</tspan><tspan x="181.9" y="38.4">T </tspan><tspan class="cls-19" x="207.73" y="38.4">T</tspan><tspan x="225.81" y="38.4">O </tspan><tspan class="cls-20" x="253.39" y="38.4">A</tspan><tspan class="cls-21" x="273.96" y="38.4">C</tspan><tspan x="290.19" y="38.4">OUSTIC </tspan><tspan class="cls-15" x="404.3" y="38.4">P</tspan><tspan x="422.76" y="38.4">ARAMETERS</tspan></text></svg>