<svg id="Layer_1" data-name="Layer 1" xmlns="http://www.w3.org/2000/svg" viewBox="0 0 836.03 714.42"><defs><style>.cls-1{fill:none;}.cls-1,.cls-3,.cls-4,.cls-5,.cls-6,.cls-7{stroke:#000;stroke-miterlimit:10;}.cls-2{font-size:37.66px;font-family:DIN-Regular, DIN;}.cls-3{fill:#333;}.cls-3,.cls-4,.cls-5,.cls-6,.cls-7{stroke-width:0.5px;}.cls-4{fill:#666;}.cls-5{fill:#999;}.cls-6{fill:#b3b3b3;}.cls-7{fill:#e6e6e6;}</style></defs><title>PerceptiveTest_Vectorized</title><line class="cls-1" x1="32.21" y1="625.12" x2="835.53" y2="625.12"/><line class="cls-1" x1="32.21" y1="625.12" x2="32.21" y2="612.42"/><line class="cls-1" x1="433.87" y1="625.12" x2="433.87" y2="612.42"/><line class="cls-1" x1="835.53" y1="625.12" x2="835.53" y2="612.42"/><text class="cls-2" transform="translate(0 639.24)">0</text><text class="cls-2" transform="translate(0 575.71)">1</text><text class="cls-2" transform="translate(0 512.19)">2</text><text class="cls-2" transform="translate(0 448.66)">3</text><text class="cls-2" transform="translate(0 385.13)">4</text><text class="cls-2" transform="translate(0 321.61)">5</text><text class="cls-2" transform="translate(0 258.08)">6</text><text class="cls-2" transform="translate(0 194.55)">7</text><text class="cls-2" transform="translate(0 131.02)">8</text><line class="cls-1" x1="32.21" y1="625.12" x2="32.21" y2="116.9"/><line class="cls-1" x1="32.21" y1="625.12" x2="52.29" y2="625.12"/><line class="cls-1" x1="32.21" y1="561.59" x2="52.29" y2="561.59"/><line class="cls-1" x1="32.21" y1="498.07" x2="52.29" y2="498.07"/><line class="cls-1" x1="32.21" y1="434.54" x2="52.29" y2="434.54"/><line class="cls-1" x1="32.21" y1="371.01" x2="52.29" y2="371.01"/><line class="cls-1" x1="32.21" y1="307.48" x2="52.29" y2="307.48"/><line class="cls-1" x1="32.21" y1="243.96" x2="52.29" y2="243.96"/><line class="cls-1" x1="32.21" y1="180.43" x2="52.29" y2="180.43"/><line class="cls-1" x1="32.21" y1="116.9" x2="52.29" y2="116.9"/><rect class="cls-3" x="317.39" y="213.52" width="72.3" height="411.6"/><rect class="cls-3" x="719.05" y="184.4" width="72.3" height="440.72"/><rect class="cls-4" x="237.05" y="243.3" width="72.3" height="381.83"/><rect class="cls-4" x="638.71" y="249.25" width="72.3" height="375.87"/><rect class="cls-5" x="156.72" y="161.9" width="72.3" height="463.22"/><rect class="cls-6" x="558.38" y="175.8" width="72.3" height="449.32"/><rect class="cls-7" x="76.39" y="172.49" width="72.3" height="452.63"/><rect class="cls-7" x="478.05" y="210.87" width="72.3" height="414.25"/><line class="cls-1" x1="114.93" y1="160.14" x2="114.93" y2="184.85"/><line class="cls-1" x1="109.93" y1="159.96" x2="119.93" y2="159.96"/><line class="cls-1" x1="109.93" y1="185.02" x2="119.93" y2="185.02"/><line class="cls-1" x1="192.93" y1="147.52" x2="192.93" y2="176.27"/><line class="cls-1" x1="187.93" y1="147.31" x2="197.93" y2="147.31"/><line class="cls-1" x1="187.93" y1="176.47" x2="197.93" y2="176.47"/><line class="cls-1" x1="274.93" y1="226.45" x2="274.93" y2="260.13"/><line class="cls-1" x1="269.93" y1="226.21" x2="279.93" y2="226.21"/><line class="cls-1" x1="269.93" y1="260.37" x2="279.93" y2="260.37"/><line class="cls-1" x1="354.93" y1="194.2" x2="354.93" y2="232.79"/><line class="cls-1" x1="349.93" y1="193.92" x2="359.93" y2="193.92"/><line class="cls-1" x1="349.93" y1="233.06" x2="359.93" y2="233.06"/><line class="cls-1" x1="515.93" y1="196.36" x2="515.93" y2="225.02"/><line class="cls-1" x1="510.93" y1="196.16" x2="520.93" y2="196.16"/><line class="cls-1" x1="510.93" y1="225.23" x2="520.93" y2="225.23"/><line class="cls-1" x1="595.93" y1="157.26" x2="595.93" y2="194.12"/><line class="cls-1" x1="590.93" y1="157" x2="600.93" y2="157"/><line class="cls-1" x1="590.93" y1="194.39" x2="600.93" y2="194.39"/><line class="cls-1" x1="675.93" y1="229.21" x2="675.93" y2="269.18"/><line class="cls-1" x1="670.93" y1="228.92" x2="680.93" y2="228.92"/><line class="cls-1" x1="670.93" y1="269.46" x2="680.93" y2="269.46"/><line class="cls-1" x1="756.93" y1="166.4" x2="756.93" y2="201.99"/><line class="cls-1" x1="751.93" y1="166.14" x2="761.93" y2="166.14"/><line class="cls-1" x1="751.93" y1="202.24" x2="761.93" y2="202.24"/><path d="M310.12,737.08l-.83-2.65h-5.47l-.88,2.65h-4.57l6.47-17.8h3.38l6.47,17.8ZM306.64,726l-1.6,4.75h3.1Z" transform="translate(-159.57 -22.81)"/><path d="M326.57,737.08l-5.7-9v9h-4.38v-17.8h3.83l5.7,9v-9h4.37v17.8Z" transform="translate(-159.57 -22.81)"/><path d="M334,737.08v-17.8h12.1v3.9h-7.72v3H345v3.9h-6.6v3.13h7.72v3.9Z" transform="translate(-159.57 -22.81)"/><path d="M359.34,736.07a5.72,5.72,0,0,1-1.08.62,5.8,5.8,0,0,1-1.3.4,8.63,8.63,0,0,1-1.59.14,6.54,6.54,0,0,1-4.95-2,5.27,5.27,0,0,1-1.08-1.51,6.86,6.86,0,0,1-.53-1.72,11.28,11.28,0,0,1-.18-1.86c0-.64,0-1.3,0-2s0-1.32,0-2a11.29,11.29,0,0,1,.18-1.87,6.66,6.66,0,0,1,.53-1.71,5.13,5.13,0,0,1,1.08-1.51,6.85,6.85,0,0,1,2.17-1.49,7.07,7.07,0,0,1,2.78-.51,7.84,7.84,0,0,1,1.59.14,5.8,5.8,0,0,1,1.3.4,5.72,5.72,0,0,1,1.08.62,7.27,7.27,0,0,1,1,.81l-2.9,2.9a5.34,5.34,0,0,0-.85-.7,2.16,2.16,0,0,0-1.17-.27,2.34,2.34,0,0,0-1,.21,1.82,1.82,0,0,0-.67.54,3.16,3.16,0,0,0-.28.45,3,3,0,0,0-.21.72,12.45,12.45,0,0,0-.14,1.24c0,.51-.05,1.17-.05,2s0,1.48.05,2a12.2,12.2,0,0,0,.14,1.23,3.12,3.12,0,0,0,.21.73,3.85,3.85,0,0,0,.28.45,2,2,0,0,0,.67.54,2.34,2.34,0,0,0,1,.21,2.07,2.07,0,0,0,1.17-.28,4.44,4.44,0,0,0,.85-.7l2.9,2.9A8.22,8.22,0,0,1,359.34,736.07Z" transform="translate(-159.57 -22.81)"/><path d="M371.89,737.08V730h-4.65v7.05h-4.37v-17.8h4.37v6.85h4.65v-6.85h4.38v17.8Z" transform="translate(-159.57 -22.81)"/><path d="M392.84,728.18c0,.66,0,1.32,0,2a12.48,12.48,0,0,1-.17,1.86,7.32,7.32,0,0,1-.54,1.72,5.27,5.27,0,0,1-1.08,1.51,7.46,7.46,0,0,1-7.8,1.49,7.17,7.17,0,0,1-2.15-1.49,5.43,5.43,0,0,1-1.07-1.51,7.32,7.32,0,0,1-.54-1.72,10.29,10.29,0,0,1-.17-1.86c0-.64,0-1.3,0-2s0-1.32,0-2a10.32,10.32,0,0,1,.17-1.87,7.1,7.1,0,0,1,.54-1.71,5.28,5.28,0,0,1,1.07-1.51,7,7,0,0,1,2.15-1.49,7.12,7.12,0,0,1,2.83-.51,7,7,0,0,1,2.82.51,6.88,6.88,0,0,1,2.15,1.49,5.13,5.13,0,0,1,1.08,1.51,7.1,7.1,0,0,1,.54,1.71,12.5,12.5,0,0,1,.17,1.87C392.84,726.86,392.84,727.51,392.84,728.18Zm-4.37,0c0-.82,0-1.48-.05-2s-.08-.92-.13-1.22a2.43,2.43,0,0,0-.2-.72,3.35,3.35,0,0,0-.27-.45,2.09,2.09,0,0,0-.7-.55,2.62,2.62,0,0,0-2.1,0,2,2,0,0,0-.7.55,4.92,4.92,0,0,0-.28.45,2.77,2.77,0,0,0-.2.72,12.19,12.19,0,0,0-.12,1.22c0,.51-.05,1.17-.05,2s0,1.47.05,2,.07.91.12,1.22a2.8,2.8,0,0,0,.2.71,3.85,3.85,0,0,0,.28.45,2,2,0,0,0,.7.56,2.42,2.42,0,0,0,2.1,0,2.11,2.11,0,0,0,.7-.56,2.82,2.82,0,0,0,.27-.45,2.44,2.44,0,0,0,.2-.71c0-.31.09-.72.13-1.22S388.47,729,388.47,728.18Z" transform="translate(-159.57 -22.81)"/><path d="M395.87,737.08v-17.8h4.37v17.8Z" transform="translate(-159.57 -22.81)"/><path d="M414,736.07a5.72,5.72,0,0,1-1.08.62,5.8,5.8,0,0,1-1.3.4,8.63,8.63,0,0,1-1.59.14,6.54,6.54,0,0,1-4.95-2,5.27,5.27,0,0,1-1.08-1.51,6.86,6.86,0,0,1-.53-1.72,11.28,11.28,0,0,1-.18-1.86c0-.64,0-1.3,0-2s0-1.32,0-2a11.29,11.29,0,0,1,.18-1.87,6.66,6.66,0,0,1,.53-1.71,5.13,5.13,0,0,1,1.08-1.51,6.85,6.85,0,0,1,2.17-1.49,7.07,7.07,0,0,1,2.78-.51,7.84,7.84,0,0,1,1.59.14,5.8,5.8,0,0,1,1.3.4,5.72,5.72,0,0,1,1.08.62,7.27,7.27,0,0,1,.95.81L412,724a5.34,5.34,0,0,0-.85-.7A2.16,2.16,0,0,0,410,723a2.34,2.34,0,0,0-1,.21,1.82,1.82,0,0,0-.67.54,3.16,3.16,0,0,0-.28.45,3,3,0,0,0-.21.72,12.45,12.45,0,0,0-.14,1.24c0,.51-.05,1.17-.05,2s0,1.48.05,2a12.2,12.2,0,0,0,.14,1.23,3.12,3.12,0,0,0,.21.73,3.85,3.85,0,0,0,.28.45,2,2,0,0,0,.67.54,2.34,2.34,0,0,0,1,.21,2.07,2.07,0,0,0,1.17-.28,4.44,4.44,0,0,0,.85-.7l2.9,2.9A8.22,8.22,0,0,1,414,736.07Z" transform="translate(-159.57 -22.81)"/><path d="M433.22,736.07a6.14,6.14,0,0,1-1.09.62,5.5,5.5,0,0,1-1.3.4,8.55,8.55,0,0,1-1.59.14,6.58,6.58,0,0,1-4.95-2,5.43,5.43,0,0,1-1.07-1.51,7.32,7.32,0,0,1-.54-1.72,11.28,11.28,0,0,1-.18-1.86c0-.64,0-1.3,0-2s0-1.32,0-2a11.29,11.29,0,0,1,.18-1.87,7.1,7.1,0,0,1,.54-1.71,5.28,5.28,0,0,1,1.07-1.51,6.89,6.89,0,0,1,2.18-1.49,7,7,0,0,1,2.77-.51,7.78,7.78,0,0,1,1.59.14,5.5,5.5,0,0,1,1.3.4,6.14,6.14,0,0,1,1.09.62,8,8,0,0,1,.95.81l-2.9,2.9a6.4,6.4,0,0,0-.85-.7,2.22,2.22,0,0,0-1.18-.27,2.26,2.26,0,0,0-1,.21,1.85,1.85,0,0,0-.68.54,2.44,2.44,0,0,0-.27.45,2.31,2.31,0,0,0-.21.72,10,10,0,0,0-.14,1.24c0,.51-.05,1.17-.05,2s0,1.48.05,2a9.84,9.84,0,0,0,.14,1.23,2.38,2.38,0,0,0,.21.73,2.82,2.82,0,0,0,.27.45,2.08,2.08,0,0,0,.68.54,2.26,2.26,0,0,0,1,.21,2.12,2.12,0,0,0,1.18-.28,5.15,5.15,0,0,0,.85-.7l2.9,2.9A9.15,9.15,0,0,1,433.22,736.07Z" transform="translate(-159.57 -22.81)"/><path d="M446.44,737.08l-.82-2.65h-5.48l-.87,2.65h-4.58l6.48-17.8h3.37l6.48,17.8ZM443,726l-1.6,4.75h3.1Z" transform="translate(-159.57 -22.81)"/><path d="M464.77,731.62a5.18,5.18,0,0,1-.55,2.4,5.42,5.42,0,0,1-1.49,1.77,6.9,6.9,0,0,1-2.19,1.08,9.48,9.48,0,0,1-2.65.36,13.09,13.09,0,0,1-3.72-.49,6.93,6.93,0,0,1-3-1.86l2.8-2.8a3.83,3.83,0,0,0,1.8,1,8.69,8.69,0,0,0,2.18.28c1.7,0,2.55-.54,2.55-1.6a1.5,1.5,0,0,0-.35-1.05,2,2,0,0,0-1.18-.48l-2.15-.3a6.11,6.11,0,0,1-3.57-1.57,4.89,4.89,0,0,1-1.23-3.58,5.58,5.58,0,0,1,.45-2.25,5.12,5.12,0,0,1,1.29-1.77,6.18,6.18,0,0,1,2-1.18,8.22,8.22,0,0,1,2.72-.42,10.83,10.83,0,0,1,3.39.48,6.72,6.72,0,0,1,2.61,1.63L461.74,724a3,3,0,0,0-.9-.64,4.34,4.34,0,0,0-.92-.31,3.77,3.77,0,0,0-.85-.1h-.7a2.81,2.81,0,0,0-1,.15,2.14,2.14,0,0,0-.66.39,1.62,1.62,0,0,0-.39.52,1.52,1.52,0,0,0-.12.59,1.25,1.25,0,0,0,.07.4,1.1,1.1,0,0,0,.28.43,1.94,1.94,0,0,0,.46.32,2.1,2.1,0,0,0,.76.2l2.15.3a6,6,0,0,1,3.5,1.48,3.86,3.86,0,0,1,1,1.68A7.57,7.57,0,0,1,464.77,731.62Z" transform="translate(-159.57 -22.81)"/><path d="M467.64,737.08v-17.8h12.1v3.9H472v3h6.6v3.9H472v3.13h7.72v3.9Z" transform="translate(-159.57 -22.81)"/><path d="M729.19,719.28h6.73a5.21,5.21,0,0,1,3.52,1.17,4.82,4.82,0,0,1,1.71,3.8,4.94,4.94,0,0,1-3.33,4.93l4,7.9h-3.1l-3.57-7.61H731.8v7.61h-2.61Zm2.61,7.8h4a2.76,2.76,0,0,0,2.93-2.84,2.43,2.43,0,0,0-.87-2,3,3,0,0,0-1.92-.55h-4.1Z" transform="translate(-159.57 -22.81)"/><path d="M743.85,728.18A30.36,30.36,0,0,1,744,724a4.9,4.9,0,0,1,.58-1.7,5.91,5.91,0,0,1,2-2.19,5.79,5.79,0,0,1,3.39-1,5.89,5.89,0,0,1,3.42,1,6.06,6.06,0,0,1,2,2.2,4.2,4.2,0,0,1,.6,1.7,57.07,57.07,0,0,1,0,8.27,4.29,4.29,0,0,1-.6,1.73,5.83,5.83,0,0,1-2,2.17,6,6,0,0,1-3.42,1,5.87,5.87,0,0,1-3.39-1,5.79,5.79,0,0,1-2-2.17c-.13-.27-.24-.53-.35-.77a5.43,5.43,0,0,1-.23-1A30.15,30.15,0,0,1,743.85,728.18Zm2.61,0a21.09,21.09,0,0,0,.19,3.56,3,3,0,0,0,.67,1.5,3.12,3.12,0,0,0,1.09.9,3,3,0,0,0,1.59.4,3.12,3.12,0,0,0,1.62-.4,2.89,2.89,0,0,0,1-.9,3.17,3.17,0,0,0,.7-1.5,24.44,24.44,0,0,0,.17-3.56,25.14,25.14,0,0,0-.17-3.59,3.16,3.16,0,0,0-.7-1.47,3,3,0,0,0-1-.92,3.55,3.55,0,0,0-1.62-.38,3.43,3.43,0,0,0-1.59.38,3.28,3.28,0,0,0-1.09.92,2.94,2.94,0,0,0-.67,1.47A21.69,21.69,0,0,0,746.46,728.18Z" transform="translate(-159.57 -22.81)"/><path d="M759.1,728.18a32.77,32.77,0,0,1,.17-4.16,5.12,5.12,0,0,1,.58-1.7,6.09,6.09,0,0,1,2-2.19,5.84,5.84,0,0,1,3.39-1,5.91,5.91,0,0,1,5.39,3.2,4.35,4.35,0,0,1,.61,1.7,57.07,57.07,0,0,1,0,8.27,4.44,4.44,0,0,1-.61,1.73,5.72,5.72,0,0,1-2,2.17,6,6,0,0,1-3.43,1,6.19,6.19,0,0,1-5.4-3.19c-.12-.27-.24-.53-.34-.77a6.36,6.36,0,0,1-.24-1A32.55,32.55,0,0,1,759.1,728.18Zm2.61,0a21.09,21.09,0,0,0,.19,3.56,3,3,0,0,0,.67,1.5,3.12,3.12,0,0,0,1.09.9,3,3,0,0,0,1.59.4,3.14,3.14,0,0,0,1.62-.4,2.94,2.94,0,0,0,1-.9,3.17,3.17,0,0,0,.7-1.5,22.64,22.64,0,0,0,.18-3.56,23.29,23.29,0,0,0-.18-3.59,3.16,3.16,0,0,0-.7-1.47,3.1,3.1,0,0,0-1-.92,3.58,3.58,0,0,0-1.62-.38,3.39,3.39,0,0,0-1.59.38,3.28,3.28,0,0,0-1.09.92,2.94,2.94,0,0,0-.67,1.47A21.69,21.69,0,0,0,761.71,728.18Z" transform="translate(-159.57 -22.81)"/><path d="M774.93,719.28h2.46l4.94,11.6,4.85-11.6h2.47v17.8H787V726H787l-3.61,8.55h-2.18l-3.6-8.55h-.05v11.1h-2.61Z" transform="translate(-159.57 -22.81)"/><path d="M811.5,732.11a6.74,6.74,0,0,1-2.17,3.8,6,6,0,0,1-3.89,1.31A6.19,6.19,0,0,1,800,734c-.13-.27-.24-.53-.34-.77a4.62,4.62,0,0,1-.24-1,47.58,47.58,0,0,1,0-8.27,5.12,5.12,0,0,1,.58-1.7,6.19,6.19,0,0,1,2-2.2,5.84,5.84,0,0,1,3.39-1,5.75,5.75,0,0,1,4.07,1.53,6.78,6.78,0,0,1,2,3.74h-2.78a3.94,3.94,0,0,0-1.16-1.84,3.3,3.3,0,0,0-2.13-.74,3.38,3.38,0,0,0-1.58.38,3.19,3.19,0,0,0-1.09.92,3,3,0,0,0-.68,1.47,22.9,22.9,0,0,0-.19,3.59,22.26,22.26,0,0,0,.19,3.56,3,3,0,0,0,.68,1.5,3,3,0,0,0,1.09.9,3,3,0,0,0,1.58.4,3.53,3.53,0,0,0,3.3-2.43Z" transform="translate(-159.57 -22.81)"/><path d="M822.61,733.1h-6.54l-1.33,4H812l6.26-17.8h2.19l6.27,17.8h-2.76Zm-.75-2.39-2.49-7.79h0l-2.5,7.79Z" transform="translate(-159.57 -22.81)"/><path d="M829.23,732.77a7.48,7.48,0,0,0,4.9,1.77c2.24,0,3.38-.86,3.41-2.48,0-1.33-.73-2.13-2.25-2.39l-2.28-.34a5.54,5.54,0,0,1-3.38-1.69,4.83,4.83,0,0,1-1.2-3.3,4.94,4.94,0,0,1,1.5-3.76,5.75,5.75,0,0,1,4.12-1.45,9.52,9.52,0,0,1,5.59,1.84l-1.45,2.22a7.73,7.73,0,0,0-4.27-1.37,3.19,3.19,0,0,0-2,.62,2.37,2.37,0,0,0-.87,1.93,2,2,0,0,0,.58,1.39,3.25,3.25,0,0,0,1.86.88c.47.09,1.12.18,1.94.28a5.3,5.3,0,0,1,3.58,1.8,5.12,5.12,0,0,1,1.15,3.32c-.09,3.41-2.1,5.14-6,5.18a9.55,9.55,0,0,1-6.58-2.43Z" transform="translate(-159.57 -22.81)"/><path d="M843.36,719.28h11v2.54H846v5.09h7.17v2.39H846v5.24h8.41v2.54h-11Z" transform="translate(-159.57 -22.81)"/><path d="M249.24,674.38a4.93,4.93,0,0,1-3.74-1.47l1.17-1.17a3.19,3.19,0,0,0,2.57,1.08c2.14,0,3.36-1.36,3.36-3.77V657.87h1.75v11.41A4.82,4.82,0,0,1,249.24,674.38Z" transform="translate(-159.57 -22.81)"/><path d="M268.17,674.25l-1.31-3.71h-7.15l-1.31,3.71h-1.86l6-16.38H264l6,16.38Zm-4.85-13.87L260.24,669h6.12Z" transform="translate(-159.57 -22.81)"/><path d="M282.43,672.73a5.73,5.73,0,0,1-4.14,1.52h-5.61V657.87h5.61a5.73,5.73,0,0,1,4.14,1.52c1.7,1.7,1.61,4.21,1.61,6.49S284.13,671,282.43,672.73Zm-1.22-12.1a4.26,4.26,0,0,0-3.22-1.19h-3.56v13.24H278a4.26,4.26,0,0,0,3.22-1.19c1.13-1.18,1.08-3.61,1.08-5.61S282.34,661.8,281.21,660.63Z" transform="translate(-159.57 -22.81)"/><path d="M288.16,674.25V657.87h10.16v1.57h-8.41v5.77h7.17v1.56h-7.17v5.91h8.41v1.57Z" transform="translate(-159.57 -22.81)"/><path d="M351.81,672.5a6,6,0,0,1-8.55.18c-1.54-1.54-1.54-3.15-1.54-6.62s0-5.08,1.54-6.62a5.77,5.77,0,0,1,4.18-1.71,5.59,5.59,0,0,1,5.73,4.9h-1.75a3.93,3.93,0,0,0-4-3.33,4,4,0,0,0-2.83,1.17c-1,1.06-1.15,2.16-1.15,5.59s.12,4.55,1.15,5.61a3.94,3.94,0,0,0,2.83,1.15,4,4,0,0,0,3.11-1.4,4.35,4.35,0,0,0,.92-3v-1.24h-4v-1.54h5.77v2.6A5.67,5.67,0,0,1,351.81,672.5Z" transform="translate(-159.57 -22.81)"/><path d="M361.63,659.44v14.81h-1.75V659.44h-4.73v-1.57h11.22v1.57Z" transform="translate(-159.57 -22.81)"/><path d="M420.78,674.25l-8.7-13.13v13.13h-1.74V657.87H412L420.68,671V657.87h1.75v16.38Z" transform="translate(-159.57 -22.81)"/><path d="M439.45,674.25V661.8L435,671.67h-1.5l-4.55-9.87v12.45h-1.75V657.87h1.75l5.33,11.62,5.2-11.62h1.75v16.38Z" transform="translate(-159.57 -22.81)"/><path d="M447.69,659.44v6h7.17V667h-7.17v7.23h-1.75V657.87H456.1v1.57Z" transform="translate(-159.57 -22.81)"/><path d="M492.54,674.38a7.14,7.14,0,0,1-5.61-2.16l1.2-1.19a5.65,5.65,0,0,0,4.46,1.79c2.39,0,3.86-1.13,3.86-3a2.62,2.62,0,0,0-.78-2,3.5,3.5,0,0,0-2.14-.78l-1.91-.3a6,6,0,0,1-3-1.24,3.87,3.87,0,0,1-1.24-3.06c0-2.79,2-4.63,5.24-4.63a6.55,6.55,0,0,1,4.88,1.8l-1.13,1.13a5.16,5.16,0,0,0-3.82-1.41c-2.18,0-3.44,1.22-3.44,3a2.36,2.36,0,0,0,.73,1.88,4.73,4.73,0,0,0,2.21.9l1.79.28a5.26,5.26,0,0,1,3,1.15,4.07,4.07,0,0,1,1.38,3.24C498.2,672.61,496,674.38,492.54,674.38Z" transform="translate(-159.57 -22.81)"/><path d="M511.15,672.68a6,6,0,0,1-8.37,0c-1.54-1.54-1.54-3.15-1.54-6.62s0-5.08,1.54-6.62a6,6,0,0,1,8.37,0c1.54,1.54,1.54,3.15,1.54,6.62S512.69,671.14,511.15,672.68Zm-1.36-12.21a4,4,0,0,0-5.65,0c-1,1.06-1.15,2.16-1.15,5.59s.11,4.53,1.15,5.59a4,4,0,0,0,5.65,0c1-1.06,1.15-2.16,1.15-5.59S510.83,661.53,509.79,660.47Z" transform="translate(-159.57 -22.81)"/><path d="M523.18,674.25h-6.37V657.87H523c2.85,0,4.83,1.63,4.83,4.37a3.75,3.75,0,0,1-2.41,3.59,4,4,0,0,1,2.66,3.88C528.05,672.68,526.08,674.25,523.18,674.25Zm-.35-14.81h-4.27v5.68h4.27c1.82,0,3.22-.9,3.22-2.86S524.65,659.44,522.83,659.44Zm.19,7.24h-4.46v6H523c2,0,3.29-1.17,3.29-3S525,666.68,523,666.68Z" transform="translate(-159.57 -22.81)"/><path d="M532.17,674.25V657.87h1.75v16.38Z" transform="translate(-159.57 -22.81)"/><path d="M650.24,674.38a4.93,4.93,0,0,1-3.74-1.47l1.17-1.17a3.19,3.19,0,0,0,2.57,1.08c2.14,0,3.36-1.36,3.36-3.77V657.87h1.75v11.41A4.82,4.82,0,0,1,650.24,674.38Z" transform="translate(-159.57 -22.81)"/><path d="M669.17,674.25l-1.31-3.71h-7.15l-1.31,3.71h-1.86l6-16.38H665l6,16.38Zm-4.85-13.87L661.24,669h6.12Z" transform="translate(-159.57 -22.81)"/><path d="M683.43,672.73a5.73,5.73,0,0,1-4.14,1.52h-5.61V657.87h5.61a5.73,5.73,0,0,1,4.14,1.52c1.7,1.7,1.61,4.21,1.61,6.49S685.13,671,683.43,672.73Zm-1.22-12.1a4.26,4.26,0,0,0-3.22-1.19h-3.56v13.24H679a4.26,4.26,0,0,0,3.22-1.19c1.13-1.18,1.08-3.61,1.08-5.61S683.34,661.8,682.21,660.63Z" transform="translate(-159.57 -22.81)"/><path d="M689.16,674.25V657.87h10.16v1.57h-8.41v5.77h7.17v1.56h-7.17v5.91h8.41v1.57Z" transform="translate(-159.57 -22.81)"/><path d="M752.81,672.5a6,6,0,0,1-8.55.18c-1.55-1.54-1.55-3.15-1.55-6.62s0-5.08,1.55-6.62a5.77,5.77,0,0,1,4.18-1.71,5.59,5.59,0,0,1,5.73,4.9h-1.75a3.93,3.93,0,0,0-4-3.33,4,4,0,0,0-2.83,1.17c-1,1.06-1.15,2.16-1.15,5.59s.12,4.55,1.15,5.61a4.1,4.1,0,0,0,5.93-.25,4.3,4.3,0,0,0,.92-3v-1.24h-4v-1.54h5.77v2.6A5.67,5.67,0,0,1,752.81,672.5Z" transform="translate(-159.57 -22.81)"/><path d="M762.63,659.44v14.81h-1.75V659.44h-4.73v-1.57h11.22v1.57Z" transform="translate(-159.57 -22.81)"/><path d="M821.78,674.25l-8.7-13.13v13.13h-1.74V657.87H813L821.68,671V657.87h1.75v16.38Z" transform="translate(-159.57 -22.81)"/><path d="M840.45,674.25V661.8L836,671.67h-1.5l-4.55-9.87v12.45h-1.75V657.87h1.75l5.33,11.62,5.2-11.62h1.75v16.38Z" transform="translate(-159.57 -22.81)"/><path d="M848.69,659.44v6h7.17V667h-7.17v7.23h-1.75V657.87H857.1v1.57Z" transform="translate(-159.57 -22.81)"/><path d="M893.54,674.38a7.14,7.14,0,0,1-5.61-2.16l1.2-1.19a5.65,5.65,0,0,0,4.46,1.79c2.39,0,3.86-1.13,3.86-3a2.62,2.62,0,0,0-.78-2,3.5,3.5,0,0,0-2.14-.78l-1.91-.3a6,6,0,0,1-3-1.24,3.87,3.87,0,0,1-1.24-3.06c0-2.79,2-4.63,5.24-4.63a6.55,6.55,0,0,1,4.88,1.8l-1.13,1.13a5.16,5.16,0,0,0-3.82-1.41c-2.18,0-3.44,1.22-3.44,3a2.36,2.36,0,0,0,.73,1.88,4.73,4.73,0,0,0,2.21.9l1.79.28a5.26,5.26,0,0,1,3,1.15,4.07,4.07,0,0,1,1.38,3.24C899.2,672.61,897,674.38,893.54,674.38Z" transform="translate(-159.57 -22.81)"/><path d="M912.15,672.68a6,6,0,0,1-8.37,0c-1.54-1.54-1.54-3.15-1.54-6.62s0-5.08,1.54-6.62a6,6,0,0,1,8.37,0c1.54,1.54,1.54,3.15,1.54,6.62S913.69,671.14,912.15,672.68Zm-1.36-12.21a4,4,0,0,0-5.65,0c-1,1.06-1.15,2.16-1.15,5.59s.11,4.53,1.15,5.59a4,4,0,0,0,5.65,0c1-1.06,1.15-2.16,1.15-5.59S911.83,661.53,910.79,660.47Z" transform="translate(-159.57 -22.81)"/><path d="M924.18,674.25h-6.37V657.87H924c2.85,0,4.83,1.63,4.83,4.37a3.75,3.75,0,0,1-2.41,3.59,4,4,0,0,1,2.66,3.88C929.05,672.68,927.08,674.25,924.18,674.25Zm-.35-14.81h-4.27v5.68h4.27c1.82,0,3.22-.9,3.22-2.86S925.65,659.44,923.83,659.44Zm.19,7.24h-4.46v6H924c2,0,3.29-1.17,3.29-3S926,666.68,924,666.68Z" transform="translate(-159.57 -22.81)"/><path d="M933.17,674.25V657.87h1.75v16.38Z" transform="translate(-159.57 -22.81)"/><path d="M306.88,44.49a8.34,8.34,0,0,1-1.4.8,7.88,7.88,0,0,1-1.66.51,10.57,10.57,0,0,1-2,.18,8.5,8.5,0,0,1-6.34-2.56,6.75,6.75,0,0,1-1.37-1.94,9,9,0,0,1-.69-2.19,14.24,14.24,0,0,1-.23-2.39c0-.82,0-1.65,0-2.51s0-1.69,0-2.51a14.12,14.12,0,0,1,.23-2.38,9.23,9.23,0,0,1,.69-2.2,6.71,6.71,0,0,1,1.37-1.93,8.84,8.84,0,0,1,2.79-1.91,9.07,9.07,0,0,1,3.55-.65,11.48,11.48,0,0,1,2,.17,7.34,7.34,0,0,1,1.66.52,7.7,7.7,0,0,1,1.4.8,9,9,0,0,1,1.21,1l-3.71,3.71a7.2,7.2,0,0,0-1.09-.9,2.77,2.77,0,0,0-1.5-.35,2.91,2.91,0,0,0-1.31.27,2.42,2.42,0,0,0-.87.69,3.56,3.56,0,0,0-.35.58,3.29,3.29,0,0,0-.27.92,12.65,12.65,0,0,0-.18,1.59c0,.65-.06,1.5-.06,2.54s0,1.9.06,2.55a12.46,12.46,0,0,0,.18,1.58,3.38,3.38,0,0,0,.27.93,3.93,3.93,0,0,0,.35.57,2.42,2.42,0,0,0,.87.69,2.91,2.91,0,0,0,1.31.27,2.69,2.69,0,0,0,1.5-.35,6.56,6.56,0,0,0,1.09-.89l3.71,3.71A10.73,10.73,0,0,1,306.88,44.49Z" transform="translate(-159.57 -22.81)"/><path d="M326.72,34.39c0,.86,0,1.69,0,2.51a15.38,15.38,0,0,1-.22,2.39,9,9,0,0,1-.69,2.19,6.79,6.79,0,0,1-1.38,1.94,8.94,8.94,0,0,1-12.73,0,6.79,6.79,0,0,1-1.38-1.94,9,9,0,0,1-.69-2.19,14.25,14.25,0,0,1-.22-2.39c0-.82,0-1.65,0-2.51s0-1.69,0-2.51a14.13,14.13,0,0,1,.22-2.38,9.23,9.23,0,0,1,.69-2.2,6.75,6.75,0,0,1,1.38-1.93,9,9,0,0,1,2.75-1.91,10.38,10.38,0,0,1,7.23,0,9,9,0,0,1,2.75,1.91,6.75,6.75,0,0,1,1.38,1.93,9.23,9.23,0,0,1,.69,2.2,15.25,15.25,0,0,1,.22,2.38C326.71,32.7,326.72,33.54,326.72,34.39Zm-5.6,0c0-1,0-1.89-.07-2.54a14.56,14.56,0,0,0-.16-1.57,3.4,3.4,0,0,0-.25-.91,3.59,3.59,0,0,0-.36-.58,2.46,2.46,0,0,0-.89-.7A3,3,0,0,0,318,27.8a3,3,0,0,0-1.34.29,2.59,2.59,0,0,0-.9.7,4.45,4.45,0,0,0-.35.58,3.4,3.4,0,0,0-.25.91,14.56,14.56,0,0,0-.16,1.57c-.05.65-.07,1.5-.07,2.54s0,1.89.07,2.53a14.39,14.39,0,0,0,.16,1.55,3.29,3.29,0,0,0,.25.91,4.45,4.45,0,0,0,.35.58,2.75,2.75,0,0,0,.9.72A2.85,2.85,0,0,0,318,41a2.89,2.89,0,0,0,1.35-.3,2.61,2.61,0,0,0,.89-.72,3.59,3.59,0,0,0,.36-.58,3.29,3.29,0,0,0,.25-.91,14.39,14.39,0,0,0,.16-1.55C321.09,36.28,321.12,35.44,321.12,34.39Z" transform="translate(-159.57 -22.81)"/><path d="M346.24,45.78V34.87L343,40.5h-3.58l-3.23-5.63V45.78h-5.6V23h5.5l5.12,10,5.12-10h5.51V45.78Z" transform="translate(-159.57 -22.81)"/><path d="M373.24,30.33a7.65,7.65,0,0,1-.49,2.72,6.77,6.77,0,0,1-1.49,2.33A7.25,7.25,0,0,1,368.81,37a8.33,8.33,0,0,1-3.34.63H362v8.12h-5.6V23h9a8.5,8.5,0,0,1,3.34.62,7.55,7.55,0,0,1,2.45,1.65,6.72,6.72,0,0,1,1.49,2.34A7.61,7.61,0,0,1,373.24,30.33Zm-5.6,0A2.31,2.31,0,0,0,365.21,28H362v4.61h3.17a2.29,2.29,0,0,0,2.43-2.3Z" transform="translate(-159.57 -22.81)"/><path d="M387.64,45.78l-1.05-3.39h-7l-1.12,3.39H372.6L380.89,23h4.32l8.29,22.78ZM383.2,31.64l-2.05,6.08h4Z" transform="translate(-159.57 -22.81)"/><path d="M407.32,45.78l-4-8.48H401.4v8.48h-5.6V23h9a8.5,8.5,0,0,1,3.34.62,7.55,7.55,0,0,1,2.45,1.65,6.72,6.72,0,0,1,1.49,2.34,7.61,7.61,0,0,1,.49,2.72,6.44,6.44,0,0,1-.32,2.11,6.27,6.27,0,0,1-.84,1.7,6.56,6.56,0,0,1-1.2,1.26,8.62,8.62,0,0,1-1.35.88l4.93,9.5ZM407,30.33A2.31,2.31,0,0,0,404.57,28H401.4v4.61h3.17a2.29,2.29,0,0,0,2.43-2.3Z" transform="translate(-159.57 -22.81)"/><path d="M416.67,45.78V23h5.6V45.78Z" transform="translate(-159.57 -22.81)"/><path d="M442.17,38.8a6.49,6.49,0,0,1-.7,3.07,6.73,6.73,0,0,1-1.91,2.26,8.43,8.43,0,0,1-2.8,1.38,12,12,0,0,1-3.39.47,16.9,16.9,0,0,1-4.77-.63A8.81,8.81,0,0,1,424.73,43l3.59-3.59a4.73,4.73,0,0,0,2.3,1.25,11.21,11.21,0,0,0,2.78.35q3.27,0,3.27-2a1.9,1.9,0,0,0-.45-1.35,2.54,2.54,0,0,0-1.5-.61L432,36.6a7.78,7.78,0,0,1-4.57-2A6.23,6.23,0,0,1,425.82,30a7,7,0,0,1,.58-2.88A6.48,6.48,0,0,1,428,24.86a7.79,7.79,0,0,1,2.61-1.51,10.52,10.52,0,0,1,3.49-.54,13.65,13.65,0,0,1,4.34.62,8.53,8.53,0,0,1,3.34,2.08L438.3,29a3.76,3.76,0,0,0-1.15-.82,6.66,6.66,0,0,0-1.19-.4,4.67,4.67,0,0,0-1.08-.13H434a3.78,3.78,0,0,0-1.25.19,2.81,2.81,0,0,0-.85.5,1.93,1.93,0,0,0-.49.67,1.85,1.85,0,0,0-.16.76,1.72,1.72,0,0,0,.09.51,1.49,1.49,0,0,0,.36.55,2.17,2.17,0,0,0,.59.41,2.62,2.62,0,0,0,1,.26l2.76.38a7.72,7.72,0,0,1,4.48,1.89,5.13,5.13,0,0,1,1.31,2.15A10,10,0,0,1,442.17,38.8Z" transform="translate(-159.57 -22.81)"/><path d="M462.46,34.39c0,.86,0,1.69,0,2.51a14.25,14.25,0,0,1-.22,2.39,9,9,0,0,1-.69,2.19,7,7,0,0,1-1.37,1.94,9,9,0,0,1-2.76,1.9,8.94,8.94,0,0,1-10-1.9A6.79,6.79,0,0,1,446,41.48a8.58,8.58,0,0,1-.68-2.19,14.24,14.24,0,0,1-.23-2.39c0-.82,0-1.65,0-2.51s0-1.69,0-2.51a14.12,14.12,0,0,1,.23-2.38,8.78,8.78,0,0,1,.68-2.2,6.75,6.75,0,0,1,1.38-1.93,9,9,0,0,1,2.75-1.91,8.94,8.94,0,0,1,10,1.91,6.9,6.9,0,0,1,1.37,1.93,9.23,9.23,0,0,1,.69,2.2,14.13,14.13,0,0,1,.22,2.38C462.45,32.7,462.46,33.54,462.46,34.39Zm-5.6,0c0-1,0-1.89-.06-2.54s-.1-1.18-.16-1.57a3.36,3.36,0,0,0-.26-.91,3.56,3.56,0,0,0-.35-.58,2.5,2.5,0,0,0-.9-.7,3,3,0,0,0-1.34-.29,3,3,0,0,0-1.35.29,2.46,2.46,0,0,0-.89.7,3,3,0,0,0-.35.58,3,3,0,0,0-.26.91c-.06.39-.12.92-.16,1.57s-.06,1.5-.06,2.54,0,1.89.06,2.53.1,1.16.16,1.55a2.94,2.94,0,0,0,.26.91,3,3,0,0,0,.35.58,2.61,2.61,0,0,0,.89.72,2.92,2.92,0,0,0,1.35.3,2.85,2.85,0,0,0,1.34-.3A2.65,2.65,0,0,0,456,40a3.56,3.56,0,0,0,.35-.58,3.25,3.25,0,0,0,.26-.91c.06-.39.11-.91.16-1.55S456.86,35.44,456.86,34.39Z" transform="translate(-159.57 -22.81)"/><path d="M479.23,45.78l-7.3-11.45V45.78h-5.6V23h4.9l7.29,11.46V23h5.6V45.78Z" transform="translate(-159.57 -22.81)"/><path d="M512.44,34.39c0,.86,0,1.69,0,2.51a14.24,14.24,0,0,1-.23,2.39,9,9,0,0,1-.69,2.19,6.75,6.75,0,0,1-1.37,1.94,8.94,8.94,0,0,1-12.74,0A7,7,0,0,1,496,41.48a9,9,0,0,1-.69-2.19,15.37,15.37,0,0,1-.23-2.39c0-.82,0-1.65,0-2.51s0-1.69,0-2.51a15.24,15.24,0,0,1,.23-2.38,9.23,9.23,0,0,1,.69-2.2,6.9,6.9,0,0,1,1.37-1.93,9,9,0,0,1,2.75-1.91,10.41,10.41,0,0,1,7.24,0,9,9,0,0,1,2.75,1.91,6.71,6.71,0,0,1,1.37,1.93,9.23,9.23,0,0,1,.69,2.2,14.12,14.12,0,0,1,.23,2.38C512.44,32.7,512.44,33.54,512.44,34.39Zm-5.6,0c0-1,0-1.89-.06-2.54s-.1-1.18-.16-1.57a3.36,3.36,0,0,0-.26-.91,3,3,0,0,0-.35-.58,2.41,2.41,0,0,0-.9-.7,3.24,3.24,0,0,0-2.68,0,2.41,2.41,0,0,0-.9.7,3.56,3.56,0,0,0-.35.58,3.36,3.36,0,0,0-.26.91c-.06.39-.11.92-.16,1.57s-.06,1.5-.06,2.54,0,1.89.06,2.53.1,1.16.16,1.55a3.25,3.25,0,0,0,.26.91,3.56,3.56,0,0,0,.35.58,2.56,2.56,0,0,0,.9.72,3.14,3.14,0,0,0,2.68,0A2.56,2.56,0,0,0,506,40a3,3,0,0,0,.35-.58,3.25,3.25,0,0,0,.26-.91c.06-.39.12-.91.16-1.55S506.84,35.44,506.84,34.39Z" transform="translate(-159.57 -22.81)"/><path d="M521.91,28v4h8.45v5h-8.45v8.8h-5.6V23H531.8v5Z" transform="translate(-159.57 -22.81)"/><path d="M557.79,38.8a6.5,6.5,0,0,1-.71,3.07,6.7,6.7,0,0,1-1.9,2.26,8.53,8.53,0,0,1-2.8,1.38A12.12,12.12,0,0,1,549,46a16.9,16.9,0,0,1-4.77-.63A8.81,8.81,0,0,1,540.35,43l3.58-3.59a4.77,4.77,0,0,0,2.3,1.25A11.23,11.23,0,0,0,549,41c2.17,0,3.26-.68,3.26-2a1.9,1.9,0,0,0-.45-1.35,2.54,2.54,0,0,0-1.5-.61l-2.75-.38a7.81,7.81,0,0,1-4.58-2A6.27,6.27,0,0,1,541.43,30a7.12,7.12,0,0,1,.58-2.88,6.39,6.39,0,0,1,1.65-2.27,7.59,7.59,0,0,1,2.61-1.51,10.42,10.42,0,0,1,3.48-.54,13.61,13.61,0,0,1,4.34.62,8.46,8.46,0,0,1,3.34,2.08L553.91,29a3.65,3.65,0,0,0-1.15-.82,6.57,6.57,0,0,0-1.18-.4,4.82,4.82,0,0,0-1.09-.13h-.9a3.72,3.72,0,0,0-1.24.19,2.58,2.58,0,0,0-.85.5,2,2,0,0,0-.5.67,1.85,1.85,0,0,0-.16.76,1.48,1.48,0,0,0,.1.51,1.46,1.46,0,0,0,.35.55,2.54,2.54,0,0,0,.59.41,2.68,2.68,0,0,0,1,.26l2.75.38a7.69,7.69,0,0,1,4.48,1.89,4.93,4.93,0,0,1,1.31,2.15A9.65,9.65,0,0,1,557.79,38.8Z" transform="translate(-159.57 -22.81)"/><path d="M561.47,45.78V23H577v5h-9.88V31.8h8.44v5h-8.44v4H577v5Z" transform="translate(-159.57 -22.81)"/><path d="M590.3,45.78h-4.16L578.62,23h5.79l3.84,12.74L592,23h5.82Z" transform="translate(-159.57 -22.81)"/><path d="M600.15,45.78V23h15.49v5h-9.89V31.8h8.45v5h-8.45v4h9.89v5Z" transform="translate(-159.57 -22.81)"/><path d="M631.13,45.78l-4-8.48h-1.89v8.48h-5.6V23h9a8.55,8.55,0,0,1,3.35.62,7.5,7.5,0,0,1,2.44,1.65,6.58,6.58,0,0,1,1.49,2.34,7.62,7.62,0,0,1,.5,2.72,6.72,6.72,0,0,1-.32,2.11,6.29,6.29,0,0,1-.85,1.7A6,6,0,0,1,634,35.4a9,9,0,0,1-1.34.88l4.92,9.5Zm-.32-15.45a2.34,2.34,0,0,0-.64-1.6,2.31,2.31,0,0,0-1.79-.71h-3.17v4.61h3.17a2.31,2.31,0,0,0,1.79-.7A2.34,2.34,0,0,0,630.81,30.33Z" transform="translate(-159.57 -22.81)"/><path d="M653.21,45.78l-1.06-3.39h-7L644,45.78h-5.85L646.46,23h4.32l8.28,22.78Zm-4.45-14.14-2,6.08h4Z" transform="translate(-159.57 -22.81)"/><path d="M661.37,45.78V23H667V40.79h9.57v5Z" transform="translate(-159.57 -22.81)"/><path d="M699.64,45.78l-1.06-3.39h-7l-1.12,3.39H684.6L692.89,23h4.32l8.29,22.78Zm-4.45-14.14-2.05,6.08h4Z" transform="translate(-159.57 -22.81)"/><path d="M707.8,45.78V23h5.6V40.79H723v5Z" transform="translate(-159.57 -22.81)"/><path d="M742.09,38.23a12.29,12.29,0,0,1-.37,2,7.14,7.14,0,0,1-.69,1.67A7.45,7.45,0,0,1,740,43.35a8.5,8.5,0,0,1-2.85,2,9.23,9.23,0,0,1-3.61.66,8.46,8.46,0,0,1-6.34-2.56,6.79,6.79,0,0,1-1.38-1.94,9,9,0,0,1-.69-2.19,15.38,15.38,0,0,1-.22-2.39c0-.82,0-1.65,0-2.51s0-1.69,0-2.51a15.25,15.25,0,0,1,.22-2.38,9.23,9.23,0,0,1,.69-2.2,6.75,6.75,0,0,1,1.38-1.93,8.24,8.24,0,0,1,6.34-2.56,16,16,0,0,1,2.19.14,8,8,0,0,1,1.79.48,7.71,7.71,0,0,1,1.55.88,14.21,14.21,0,0,1,1.51,1.31l-3.81,3.81a7.78,7.78,0,0,0-1.48-1.23,3.33,3.33,0,0,0-1.75-.4,2.87,2.87,0,0,0-1.33.29,2.42,2.42,0,0,0-.88.7,3,3,0,0,0-.35.58,3,3,0,0,0-.26.91c-.06.39-.12.92-.16,1.57s-.06,1.5-.06,2.54,0,1.9.06,2.55.1,1.17.16,1.58a3.09,3.09,0,0,0,.26.93,3.21,3.21,0,0,0,.35.57,2.3,2.3,0,0,0,.88.69,3,3,0,0,0,1.33.27,3.36,3.36,0,0,0,1.4-.24,2.88,2.88,0,0,0,.9-.65,2.58,2.58,0,0,0,.64-1.19,5.11,5.11,0,0,0,.19-1.31v-.25H733.5V32.66h8.7v3.08C742.2,36.65,742.16,37.49,742.09,38.23Z" transform="translate(-159.57 -22.81)"/><path d="M762.46,34.39c0,.86,0,1.69,0,2.51a14.24,14.24,0,0,1-.23,2.39,8.58,8.58,0,0,1-.68,2.19,6.79,6.79,0,0,1-1.38,1.94,9.52,9.52,0,0,1-10,1.9,8.88,8.88,0,0,1-2.75-1.9A6.79,6.79,0,0,1,746,41.48a9,9,0,0,1-.69-2.19,14.25,14.25,0,0,1-.22-2.39c0-.82,0-1.65,0-2.51s0-1.69,0-2.51a14.13,14.13,0,0,1,.22-2.38,9.23,9.23,0,0,1,.69-2.2,6.75,6.75,0,0,1,1.38-1.93,8.91,8.91,0,0,1,2.75-1.91,10.38,10.38,0,0,1,7.23,0,9,9,0,0,1,2.75,1.91,6.75,6.75,0,0,1,1.38,1.93,8.78,8.78,0,0,1,.68,2.2,14.12,14.12,0,0,1,.23,2.38C762.45,32.7,762.46,33.54,762.46,34.39Zm-5.61,0c0-1,0-1.89-.06-2.54a14.56,14.56,0,0,0-.16-1.57,3.4,3.4,0,0,0-.25-.91,3.59,3.59,0,0,0-.36-.58,2.46,2.46,0,0,0-.89-.7,3,3,0,0,0-1.35-.29,3,3,0,0,0-1.34.29,2.5,2.5,0,0,0-.9.7,4.45,4.45,0,0,0-.35.58,3.36,3.36,0,0,0-.26.91c-.06.39-.11.92-.15,1.57s-.07,1.5-.07,2.54,0,1.89.07,2.53.09,1.16.15,1.55a3.25,3.25,0,0,0,.26.91,4.45,4.45,0,0,0,.35.58,2.65,2.65,0,0,0,.9.72,2.85,2.85,0,0,0,1.34.3,2.92,2.92,0,0,0,1.35-.3A2.61,2.61,0,0,0,756,40a3.59,3.59,0,0,0,.36-.58,3.29,3.29,0,0,0,.25-.91,14.39,14.39,0,0,0,.16-1.55C756.83,36.28,756.85,35.44,756.85,34.39Z" transform="translate(-159.57 -22.81)"/><path d="M775.54,28V45.78h-5.6V28h-5.6V23h16.8v5Z" transform="translate(-159.57 -22.81)"/><path d="M784.41,45.78V23H790V45.78Z" transform="translate(-159.57 -22.81)"/><path d="M806.14,45.78l-4-8.48h-1.88v8.48h-5.6V23h9a8.5,8.5,0,0,1,3.34.62,7.44,7.44,0,0,1,2.45,1.65,6.72,6.72,0,0,1,1.49,2.34,7.62,7.62,0,0,1,.5,2.72,6.72,6.72,0,0,1-.32,2.11,6.6,6.6,0,0,1-.85,1.7,6,6,0,0,1-1.2,1.26,8.62,8.62,0,0,1-1.35.88l4.93,9.5Zm-.32-15.45A2.31,2.31,0,0,0,803.38,28h-3.16v4.61h3.16a2.31,2.31,0,0,0,1.8-.7A2.34,2.34,0,0,0,805.82,30.33Z" transform="translate(-159.57 -22.81)"/><path d="M827,45.78v-9h-5.95v9h-5.6V23h5.6v8.77H827V23h5.6V45.78Z" transform="translate(-159.57 -22.81)"/><path d="M852.89,45.78V34.87l-3.23,5.63h-3.59l-3.23-5.63V45.78h-5.6V23h5.5l5.12,10L853,23h5.51V45.78Z" transform="translate(-159.57 -22.81)"/><path d="M878.39,38.8a6.49,6.49,0,0,1-.7,3.07,6.73,6.73,0,0,1-1.91,2.26,8.43,8.43,0,0,1-2.8,1.38,12,12,0,0,1-3.39.47,16.9,16.9,0,0,1-4.77-.63A8.81,8.81,0,0,1,861,43l3.59-3.59a4.73,4.73,0,0,0,2.3,1.25,11.21,11.21,0,0,0,2.78.35q3.27,0,3.27-2a1.9,1.9,0,0,0-.45-1.35,2.55,2.55,0,0,0-1.51-.61l-2.75-.38a7.78,7.78,0,0,1-4.57-2A6.23,6.23,0,0,1,862,30a7,7,0,0,1,.58-2.88,6.48,6.48,0,0,1,1.64-2.27,7.79,7.79,0,0,1,2.61-1.51,10.48,10.48,0,0,1,3.49-.54,13.65,13.65,0,0,1,4.34.62A8.53,8.53,0,0,1,878,25.51L874.52,29a3.76,3.76,0,0,0-1.15-.82,6.66,6.66,0,0,0-1.19-.4,4.69,4.69,0,0,0-1.09-.13h-.89a3.78,3.78,0,0,0-1.25.19,2.81,2.81,0,0,0-.85.5,1.93,1.93,0,0,0-.49.67,1.85,1.85,0,0,0-.16.76,1.72,1.72,0,0,0,.09.51,1.59,1.59,0,0,0,.35.55,2.41,2.41,0,0,0,.6.41,2.62,2.62,0,0,0,1,.26l2.75.38a7.72,7.72,0,0,1,4.49,1.89A5.13,5.13,0,0,1,878,35.94,10,10,0,0,1,878.39,38.8Z" transform="translate(-159.57 -22.81)"/><path d="M293.77,84.18H289.2L285.52,73l-3.68,11.23h-4.55L271,61.4h5.86l3,12,3.68-12h4l3.68,12,3-12H300Z" transform="translate(-159.57 -22.81)"/><path d="M302.32,84.18V61.4h5.6V84.18Z" transform="translate(-159.57 -22.81)"/><path d="M322.38,66.39V84.18h-5.6V66.39h-5.6v-5H328v5Z" transform="translate(-159.57 -22.81)"/><path d="M342.8,84.18v-9h-6v9h-5.6V61.4h5.6v8.77h6V61.4h5.6V84.18Z" transform="translate(-159.57 -22.81)"/><path d="M371.63,84.18l-4-8.48h-1.89v8.48h-5.6V61.4h9a8.59,8.59,0,0,1,3.35.62,7.5,7.5,0,0,1,2.44,1.65A6.72,6.72,0,0,1,376.41,66a7.62,7.62,0,0,1,.5,2.72,6.47,6.47,0,0,1-1.17,3.81,6,6,0,0,1-1.2,1.26,9,9,0,0,1-1.34.88l4.92,9.5Zm-.32-15.45a2.34,2.34,0,0,0-.64-1.6,2.31,2.31,0,0,0-1.79-.71h-3.17V71h3.17a2.31,2.31,0,0,0,1.79-.7A2.34,2.34,0,0,0,371.31,68.73Z" transform="translate(-159.57 -22.81)"/><path d="M381,84.18V61.4h15.49v5h-9.89V70.2H395v5h-8.45v4h9.89v5Z" transform="translate(-159.57 -22.81)"/><path d="M415.72,77.2a6.49,6.49,0,0,1-.7,3.07,6.73,6.73,0,0,1-1.91,2.26,8.43,8.43,0,0,1-2.8,1.38,12,12,0,0,1-3.39.47,16.9,16.9,0,0,1-4.77-.63,8.86,8.86,0,0,1-3.87-2.38l3.59-3.59a4.73,4.73,0,0,0,2.3,1.25,11.21,11.21,0,0,0,2.78.35q3.27,0,3.27-2a1.9,1.9,0,0,0-.45-1.35,2.54,2.54,0,0,0-1.5-.61L405.51,75a7.78,7.78,0,0,1-4.57-2,6.23,6.23,0,0,1-1.57-4.57,7,7,0,0,1,.58-2.88,6.48,6.48,0,0,1,1.64-2.27,7.79,7.79,0,0,1,2.61-1.51,10.52,10.52,0,0,1,3.49-.54,13.65,13.65,0,0,1,4.34.62,8.53,8.53,0,0,1,3.34,2.08l-3.52,3.51a3.76,3.76,0,0,0-1.15-.82,6.66,6.66,0,0,0-1.19-.4,4.67,4.67,0,0,0-1.08-.13h-.9a3.78,3.78,0,0,0-1.25.19,2.81,2.81,0,0,0-.85.5,1.93,1.93,0,0,0-.49.67,1.85,1.85,0,0,0-.16.76,1.72,1.72,0,0,0,.09.51,1.63,1.63,0,0,0,.36.55,2.34,2.34,0,0,0,.59.41,2.62,2.62,0,0,0,1,.26l2.76.38A7.72,7.72,0,0,1,414,72.19a5,5,0,0,1,1.31,2.15A10,10,0,0,1,415.72,77.2Z" transform="translate(-159.57 -22.81)"/><path d="M436.2,68.73a7.65,7.65,0,0,1-.49,2.72,6.77,6.77,0,0,1-1.49,2.33,7.25,7.25,0,0,1-2.45,1.65,8.36,8.36,0,0,1-3.34.63H425v8.12h-5.6V61.4h9a8.54,8.54,0,0,1,3.34.62,7.55,7.55,0,0,1,2.45,1.65A6.72,6.72,0,0,1,435.71,66,7.61,7.61,0,0,1,436.2,68.73Zm-5.6,0a2.31,2.31,0,0,0-2.43-2.31H425V71h3.17a2.29,2.29,0,0,0,2.43-2.3Z" transform="translate(-159.57 -22.81)"/><path d="M439.47,84.18V61.4H455v5h-9.88V70.2h8.44v5h-8.44v4H455v5Z" transform="translate(-159.57 -22.81)"/><path d="M471.91,82.89a7.47,7.47,0,0,1-3.05,1.31,10.57,10.57,0,0,1-2,.18,8.46,8.46,0,0,1-6.34-2.56,6.79,6.79,0,0,1-1.38-1.94,8.58,8.58,0,0,1-.68-2.19,14.34,14.34,0,0,1-.23-2.39c0-.82,0-1.65,0-2.51s0-1.69,0-2.51a14.12,14.12,0,0,1,.23-2.38,8.78,8.78,0,0,1,.68-2.2,6.75,6.75,0,0,1,1.38-1.93,8.92,8.92,0,0,1,2.78-1.91,9.15,9.15,0,0,1,3.56-.65,11.48,11.48,0,0,1,2,.17,7.66,7.66,0,0,1,3.05,1.32,8.51,8.51,0,0,1,1.22,1l-3.71,3.71a7.1,7.1,0,0,0-1.09-.9,2.77,2.77,0,0,0-1.5-.35,3,3,0,0,0-1.32.27,2.39,2.39,0,0,0-.86.69,3,3,0,0,0-.35.58,3.29,3.29,0,0,0-.27.92,12.65,12.65,0,0,0-.18,1.59c0,.65-.06,1.5-.06,2.54s0,1.9.06,2.55a12.46,12.46,0,0,0,.18,1.58,3.38,3.38,0,0,0,.27.93,3.21,3.21,0,0,0,.35.57,2.39,2.39,0,0,0,.86.69,3,3,0,0,0,1.32.27,2.69,2.69,0,0,0,1.5-.35,7,7,0,0,0,1.09-.89l3.71,3.71A10,10,0,0,1,471.91,82.89Z" transform="translate(-159.57 -22.81)"/><path d="M485.64,66.39V84.18H480V66.39h-5.6v-5h16.8v5Z" transform="translate(-159.57 -22.81)"/><path d="M511.47,66.39V84.18h-5.6V66.39h-5.6v-5h16.79v5Z" transform="translate(-159.57 -22.81)"/><path d="M536.3,72.79c0,.86,0,1.69,0,2.51a14.35,14.35,0,0,1-.22,2.39,9,9,0,0,1-.69,2.19A6.79,6.79,0,0,1,534,81.82a8.94,8.94,0,0,1-12.73,0,6.79,6.79,0,0,1-1.38-1.94,9,9,0,0,1-.69-2.19A14.35,14.35,0,0,1,519,75.3c0-.82,0-1.65,0-2.51s0-1.69,0-2.51a14.13,14.13,0,0,1,.22-2.38,9.23,9.23,0,0,1,.69-2.2,6.75,6.75,0,0,1,1.38-1.93A9,9,0,0,1,524,61.86a10.38,10.38,0,0,1,7.23,0A9,9,0,0,1,534,63.77a6.75,6.75,0,0,1,1.38,1.93,9.23,9.23,0,0,1,.69,2.2,14.13,14.13,0,0,1,.22,2.38C536.29,71.1,536.3,71.94,536.3,72.79Zm-5.6,0c0-1,0-1.89-.07-2.54a14.56,14.56,0,0,0-.16-1.57,3.4,3.4,0,0,0-.25-.91,4.45,4.45,0,0,0-.35-.58,2.59,2.59,0,0,0-.9-.7,3,3,0,0,0-1.34-.29,3,3,0,0,0-1.35.29,2.46,2.46,0,0,0-.89.7,3.59,3.59,0,0,0-.36.58,3.4,3.4,0,0,0-.25.91,14.56,14.56,0,0,0-.16,1.57c0,.65-.07,1.5-.07,2.54s0,1.89.07,2.53a14.39,14.39,0,0,0,.16,1.55,3.29,3.29,0,0,0,.25.91,3.59,3.59,0,0,0,.36.58,2.61,2.61,0,0,0,.89.72,2.89,2.89,0,0,0,1.35.3,2.85,2.85,0,0,0,1.34-.3,2.75,2.75,0,0,0,.9-.72,4.45,4.45,0,0,0,.35-.58,3.29,3.29,0,0,0,.25-.91,14.39,14.39,0,0,0,.16-1.55C530.68,74.68,530.7,73.84,530.7,72.79Z" transform="translate(-159.57 -22.81)"/><path d="M560,84.18,559,80.79h-7l-1.11,3.39H545l8.29-22.78h4.32l8.29,22.78ZM555.56,70l-2,6.08h4Z" transform="translate(-159.57 -22.81)"/><path d="M580.84,82.89a8.24,8.24,0,0,1-1.39.8,8.06,8.06,0,0,1-1.66.51,10.6,10.6,0,0,1-2,.18,8.45,8.45,0,0,1-6.33-2.56A6.79,6.79,0,0,1,568,79.88a9,9,0,0,1-.69-2.19,14.35,14.35,0,0,1-.22-2.39c0-.82,0-1.65,0-2.51s0-1.69,0-2.51a14.13,14.13,0,0,1,.22-2.38,9.23,9.23,0,0,1,.69-2.2,6.75,6.75,0,0,1,1.38-1.93,8.92,8.92,0,0,1,2.78-1.91,9.1,9.1,0,0,1,3.55-.65,11.52,11.52,0,0,1,2,.17,7.5,7.5,0,0,1,1.66.52,7.61,7.61,0,0,1,1.39.8,9.09,9.09,0,0,1,1.22,1l-3.72,3.71a6.6,6.6,0,0,0-1.08-.9,2.84,2.84,0,0,0-1.51-.35,2.91,2.91,0,0,0-1.31.27,2.39,2.39,0,0,0-.86.69,3.59,3.59,0,0,0-.36.58,4.15,4.15,0,0,0-.27.92,15.22,15.22,0,0,0-.17,1.59c0,.65-.07,1.5-.07,2.54s0,1.9.07,2.55a15,15,0,0,0,.17,1.58,4.26,4.26,0,0,0,.27.93,4,4,0,0,0,.36.57,2.39,2.39,0,0,0,.86.69,2.91,2.91,0,0,0,1.31.27,2.75,2.75,0,0,0,1.51-.35,6.51,6.51,0,0,0,1.08-.89l3.72,3.71A10.83,10.83,0,0,1,580.84,82.89Z" transform="translate(-159.57 -22.81)"/><path d="M600.68,72.79c0,.86,0,1.69,0,2.51a15.49,15.49,0,0,1-.23,2.39,9,9,0,0,1-.69,2.19,7,7,0,0,1-1.37,1.94,8.94,8.94,0,0,1-12.74,0,6.75,6.75,0,0,1-1.37-1.94,9,9,0,0,1-.69-2.19,14.34,14.34,0,0,1-.23-2.39c0-.82,0-1.65,0-2.51s0-1.69,0-2.51a14.12,14.12,0,0,1,.23-2.38,9.23,9.23,0,0,1,.69-2.2,6.71,6.71,0,0,1,1.37-1.93,9,9,0,0,1,2.75-1.91,10.41,10.41,0,0,1,7.24,0,9,9,0,0,1,2.75,1.91,6.9,6.9,0,0,1,1.37,1.93,9.23,9.23,0,0,1,.69,2.2,15.24,15.24,0,0,1,.23,2.38C600.68,71.1,600.68,71.94,600.68,72.79Zm-5.6,0c0-1,0-1.89-.06-2.54s-.1-1.18-.16-1.57a3.36,3.36,0,0,0-.26-.91,3.56,3.56,0,0,0-.35-.58,2.41,2.41,0,0,0-.9-.7,3.24,3.24,0,0,0-2.68,0,2.41,2.41,0,0,0-.9.7,3,3,0,0,0-.35.58,3.36,3.36,0,0,0-.26.91c-.06.39-.12.92-.16,1.57s-.06,1.5-.06,2.54,0,1.89.06,2.53.1,1.16.16,1.55a3.25,3.25,0,0,0,.26.91,3,3,0,0,0,.35.58,2.56,2.56,0,0,0,.9.72,3.14,3.14,0,0,0,2.68,0,2.56,2.56,0,0,0,.9-.72,3.56,3.56,0,0,0,.35-.58,3.25,3.25,0,0,0,.26-.91c.06-.39.11-.91.16-1.55S595.08,73.84,595.08,72.79Z" transform="translate(-159.57 -22.81)"/><path d="M620.76,79.56a7.76,7.76,0,0,1-1.87,2.59,8.24,8.24,0,0,1-2.75,1.65,9.8,9.8,0,0,1-3.36.58,9.67,9.67,0,0,1-3.33-.58,8.14,8.14,0,0,1-2.75-1.65,7.6,7.6,0,0,1-1.86-2.59,8.23,8.23,0,0,1-.67-3.38V61.4h5.6V76.06a3.52,3.52,0,0,0,.8,2.46,2.84,2.84,0,0,0,2.21.86,3,3,0,0,0,2.24-.86,3.44,3.44,0,0,0,.83-2.46V61.4h5.6V76.18A8.07,8.07,0,0,1,620.76,79.56Z" transform="translate(-159.57 -22.81)"/><path d="M641,77.2a6.61,6.61,0,0,1-.7,3.07,6.73,6.73,0,0,1-1.91,2.26,8.43,8.43,0,0,1-2.8,1.38,12.12,12.12,0,0,1-3.39.47,16.9,16.9,0,0,1-4.77-.63,8.81,8.81,0,0,1-3.87-2.38l3.58-3.59A4.81,4.81,0,0,0,629.42,79a11.15,11.15,0,0,0,2.78.35c2.18,0,3.26-.68,3.26-2A1.89,1.89,0,0,0,635,76a2.55,2.55,0,0,0-1.51-.61L630.76,75a7.75,7.75,0,0,1-4.57-2,6.23,6.23,0,0,1-1.57-4.57,7.12,7.12,0,0,1,.57-2.88,6.64,6.64,0,0,1,1.65-2.27,7.69,7.69,0,0,1,2.61-1.51,10.48,10.48,0,0,1,3.49-.54,13.54,13.54,0,0,1,4.33.62,8.5,8.5,0,0,1,3.35,2.08l-3.52,3.51A3.89,3.89,0,0,0,636,66.6a6.66,6.66,0,0,0-1.19-.4,4.76,4.76,0,0,0-1.09-.13h-.89a3.78,3.78,0,0,0-1.25.19,2.81,2.81,0,0,0-.85.5,1.93,1.93,0,0,0-.49.67,1.85,1.85,0,0,0-.16.76,1.72,1.72,0,0,0,.09.51,1.59,1.59,0,0,0,.35.55,2.41,2.41,0,0,0,.6.41,2.62,2.62,0,0,0,1,.26l2.75.38a7.66,7.66,0,0,1,4.48,1.89,4.93,4.93,0,0,1,1.31,2.15A9.65,9.65,0,0,1,641,77.2Z" transform="translate(-159.57 -22.81)"/><path d="M654.5,66.39V84.18h-5.6V66.39h-5.6v-5h16.8v5Z" transform="translate(-159.57 -22.81)"/><path d="M663.37,84.18V61.4H669V84.18Z" transform="translate(-159.57 -22.81)"/><path d="M686.57,82.89a8.24,8.24,0,0,1-1.39.8,8.16,8.16,0,0,1-1.67.51,10.5,10.5,0,0,1-2,.18,8.5,8.5,0,0,1-6.34-2.56,7,7,0,0,1-1.37-1.94,9,9,0,0,1-.69-2.19,14.35,14.35,0,0,1-.22-2.39c0-.82,0-1.65,0-2.51s0-1.69,0-2.51a14.13,14.13,0,0,1,.22-2.38,9.23,9.23,0,0,1,.69-2.2,6.9,6.9,0,0,1,1.37-1.93,9,9,0,0,1,2.79-1.91,9.1,9.1,0,0,1,3.55-.65,11.4,11.4,0,0,1,2,.17,7.62,7.62,0,0,1,3.06,1.32,9,9,0,0,1,1.21,1l-3.71,3.71a6.26,6.26,0,0,0-1.09-.9,2.77,2.77,0,0,0-1.5-.35,2.91,2.91,0,0,0-1.31.27,2.42,2.42,0,0,0-.87.69,4.45,4.45,0,0,0-.35.58,3.29,3.29,0,0,0-.27.92,14.85,14.85,0,0,0-.18,1.59c0,.65-.06,1.5-.06,2.54s0,1.9.06,2.55a14.62,14.62,0,0,0,.18,1.58,3.38,3.38,0,0,0,.27.93,5.06,5.06,0,0,0,.35.57,2.42,2.42,0,0,0,.87.69,2.91,2.91,0,0,0,1.31.27A2.69,2.69,0,0,0,683,79a6.18,6.18,0,0,0,1.09-.89l3.71,3.71A10.73,10.73,0,0,1,686.57,82.89Z" transform="translate(-159.57 -22.81)"/><path d="M715,68.73a7.65,7.65,0,0,1-.49,2.72A6.77,6.77,0,0,1,713,73.78a7.25,7.25,0,0,1-2.45,1.65,8.33,8.33,0,0,1-3.34.63h-3.43v8.12h-5.6V61.4h9a8.5,8.5,0,0,1,3.34.62A7.55,7.55,0,0,1,713,63.67,6.72,6.72,0,0,1,714.49,66,7.61,7.61,0,0,1,715,68.73Zm-5.6,0A2.31,2.31,0,0,0,707,66.42h-3.17V71H707a2.29,2.29,0,0,0,2.43-2.3Z" transform="translate(-159.57 -22.81)"/><path d="M729.38,84.18l-1-3.39h-7l-1.12,3.39h-5.86l8.29-22.78H727l8.29,22.78ZM724.94,70l-2.05,6.08h4Z" transform="translate(-159.57 -22.81)"/><path d="M749.06,84.18l-4-8.48h-1.89v8.48h-5.6V61.4h9a8.5,8.5,0,0,1,3.34.62,7.55,7.55,0,0,1,2.45,1.65A6.72,6.72,0,0,1,753.85,66a7.61,7.61,0,0,1,.49,2.72,6.56,6.56,0,0,1-1.16,3.81A6.56,6.56,0,0,1,752,73.8a8.62,8.62,0,0,1-1.35.88l4.93,9.5Zm-.32-15.45a2.31,2.31,0,0,0-2.43-2.31h-3.17V71h3.17a2.29,2.29,0,0,0,2.43-2.3Z" transform="translate(-159.57 -22.81)"/><path d="M771.14,84.18l-1-3.39h-7L762,84.18H756.1l8.29-22.78h4.32L777,84.18ZM766.7,70l-2.05,6.08h4Z" transform="translate(-159.57 -22.81)"/><path d="M795,84.18V73.27l-3.23,5.63h-3.58l-3.24-5.63V84.18h-5.6V61.4h5.51l5.12,10.05,5.12-10.05h5.5V84.18Z" transform="translate(-159.57 -22.81)"/><path d="M805.16,84.18V61.4h15.49v5h-9.89V70.2h8.45v5h-8.45v4h9.89v5Z" transform="translate(-159.57 -22.81)"/><path d="M834.47,66.39V84.18h-5.6V66.39h-5.6v-5h16.8v5Z" transform="translate(-159.57 -22.81)"/><path d="M843.33,84.18V61.4h15.49v5h-9.89V70.2h8.45v5h-8.45v4h9.89v5Z" transform="translate(-159.57 -22.81)"/><path d="M874.31,84.18l-4-8.48h-1.89v8.48h-5.6V61.4h9a8.55,8.55,0,0,1,3.35.62,7.55,7.55,0,0,1,2.45,1.65A6.7,6.7,0,0,1,879.09,66a7.62,7.62,0,0,1,.5,2.72,6.72,6.72,0,0,1-.32,2.11,6.44,6.44,0,0,1-.85,1.7,6,6,0,0,1-1.2,1.26,8.55,8.55,0,0,1-1.34.88l4.93,9.5ZM874,68.73a2.31,2.31,0,0,0-2.43-2.31h-3.17V71h3.17a2.29,2.29,0,0,0,2.43-2.3Z" transform="translate(-159.57 -22.81)"/><path d="M899,77.2a6.61,6.61,0,0,1-.7,3.07,6.73,6.73,0,0,1-1.91,2.26,8.43,8.43,0,0,1-2.8,1.38,12.12,12.12,0,0,1-3.39.47,16.9,16.9,0,0,1-4.77-.63,8.81,8.81,0,0,1-3.87-2.38l3.58-3.59A4.81,4.81,0,0,0,887.4,79a11.15,11.15,0,0,0,2.78.35q3.27,0,3.27-2A1.9,1.9,0,0,0,893,76a2.55,2.55,0,0,0-1.51-.61L888.74,75a7.75,7.75,0,0,1-4.57-2,6.23,6.23,0,0,1-1.57-4.57,7.12,7.12,0,0,1,.57-2.88,6.64,6.64,0,0,1,1.65-2.27,7.79,7.79,0,0,1,2.61-1.51,10.48,10.48,0,0,1,3.49-.54,13.54,13.54,0,0,1,4.33.62,8.5,8.5,0,0,1,3.35,2.08l-3.52,3.51a3.89,3.89,0,0,0-1.15-.82,6.66,6.66,0,0,0-1.19-.4,4.76,4.76,0,0,0-1.09-.13h-.89a3.78,3.78,0,0,0-1.25.19,2.81,2.81,0,0,0-.85.5,1.93,1.93,0,0,0-.49.67,1.85,1.85,0,0,0-.16.76,1.72,1.72,0,0,0,.09.51,1.59,1.59,0,0,0,.35.55,2.41,2.41,0,0,0,.6.41,2.62,2.62,0,0,0,1,.26l2.75.38a7.66,7.66,0,0,1,4.48,1.89,5,5,0,0,1,1.32,2.15A10,10,0,0,1,899,77.2Z" transform="translate(-159.57 -22.81)"/></svg>